<svg xmlns="http://www.w3.org/2000/svg" viewBox="0 0 360 420" role="img" aria-labelledby="title desc">
  <title id="title">Kapitan Fokus</title>
  <desc id="desc">Spokojny mentor w granatowej bluzie z żółtym znakiem celu.</desc>
  <rect width="360" height="420" rx="24" fill="#e8eef6"/>
  <circle cx="180" cy="146" r="82" fill="#d49a72"/>
  <path d="M99 136c5-68 41-103 84-103 45 0 82 34 82 99-24-18-49-28-76-29-31-1-61 10-90 33z" fill="#152338"/>
  <path d="M86 406v-91c0-72 43-113 94-113s94 41 94 113v91z" fill="#173b6d"/>
  <path d="M137 218l43 47 43-47 27 29-70 83-70-83z" fill="#f1cc09"/>
  <circle cx="180" cy="319" r="29" fill="none" stroke="#f8fafc" stroke-width="9"/>
  <circle cx="180" cy="319" r="8" fill="#f8fafc"/>
  <circle cx="151" cy="145" r="7" fill="#111827"/>
  <circle cx="209" cy="145" r="7" fill="#111827"/>
  <path d="M151 181c18 13 39 13 58 0" fill="none" stroke="#6f382c" stroke-width="7" stroke-linecap="round"/>
  <path d="M119 131c18-14 39-17 57-7m8 0c18-10 39-7 57 7" fill="none" stroke="#152338" stroke-width="7" stroke-linecap="round"/>
</svg>
