<svg xmlns="http://www.w3.org/2000/svg" viewBox="9 33 62 47" preserveAspectRatio="xMidYMid meet">
  <defs>
    <polygon id="solution-silhouette" points="21,36 36,39 46,53 52,54 68,70 68,76 49,77 40,65 18,65 18,59 25,52 12,52 12,47" />
    <clipPath id="solution-clip"><use href="#solution-silhouette" /></clipPath>
  </defs>
  <use href="#solution-silhouette" fill="#334155" />
  <g clip-path="url(#solution-clip)">
    <polygon points="31,51 43,51 44,63 20,63" fill="#2f80ed" stroke="#2f80ed" stroke-width="4.6" stroke-linejoin="round" />
    <polygon points="45,55 50,56 66,74 51,75 42,66 46,62" fill="#22c55e" stroke="#22c55e" stroke-width="4.6" stroke-linejoin="round" />
    <polygon points="33,41 42,50 33,50" fill="#ec4899" stroke="#ec4899" stroke-width="4.6" stroke-linejoin="round" />
    <polygon points="23,38 31,39 31,50 14,50" fill="#facc15" stroke="#facc15" stroke-width="4.6" stroke-linejoin="round" />
  </g>
  <use href="#solution-silhouette" fill="none" stroke="#334155" stroke-width="0.6" stroke-linejoin="round" />
</svg>
