<svg xmlns="http://www.w3.org/2000/svg" viewBox="5 37 66 34" preserveAspectRatio="xMidYMid meet">
  <polygon points="20,40 68,40 68,45 58,55 44,55 44,59 37,66 26,68 17,66 17,61 23,55 8,55 8,50" fill="#334155" />
  <polygon points="42,42 66,43 56,53 41,53" fill="#2f80ed" stroke="#334155" stroke-width="0.8" stroke-linejoin="round" />
  <polygon points="37,46 40,46 39,54 42,57 35,64 19,64" fill="#22c55e" stroke="#334155" stroke-width="0.8" stroke-linejoin="round" />
  <polygon points="18,44 20,53 10,53" fill="#ec4899" stroke="#334155" stroke-width="0.8" stroke-linejoin="round" />
  <polygon points="22,42 38,43 28,53 21,53" fill="#facc15" stroke="#334155" stroke-width="0.8" stroke-linejoin="round" />
</svg>
