<svg xmlns="http://www.w3.org/2000/svg" viewBox="13 36 48 41" preserveAspectRatio="xMidYMid meet">
  <polygon points="31,39 45,39 46,50 51,45 58,45 58,62 50,72 33,69 32,74 27,74 16,63 16,42 22,42 30,50" fill="#334155" />
  <polygon points="33,41 43,41 44,55 32,66" fill="#2f80ed" stroke="#334155" stroke-width="0.8" stroke-linejoin="round" />
  <polygon points="53,47 56,47 56,60 52,66 48,70 34,67" fill="#22c55e" stroke="#334155" stroke-width="0.8" stroke-linejoin="round" />
  <polygon points="18,44 25,49 20,56" fill="#ec4899" stroke="#334155" stroke-width="0.8" stroke-linejoin="round" />
  <polygon points="26,51 31,55 30,72 18,61" fill="#facc15" stroke="#334155" stroke-width="0.8" stroke-linejoin="round" />
</svg>
