<svg xmlns="http://www.w3.org/2000/svg" viewBox="13 36 48 41" preserveAspectRatio="xMidYMid meet">
  <defs>
    <polygon id="solution-silhouette" points="31,39 45,39 46,50 51,45 58,45 58,62 50,72 33,69 32,74 27,74 16,63 16,42 22,42 30,50" />
    <clipPath id="solution-clip"><use href="#solution-silhouette" /></clipPath>
  </defs>
  <use href="#solution-silhouette" fill="#334155" />
  <g clip-path="url(#solution-clip)">
    <polygon points="33,41 43,41 44,55 32,66" fill="#2f80ed" stroke="#2f80ed" stroke-width="4.6" stroke-linejoin="round" />
    <polygon points="53,47 56,47 56,60 52,66 48,70 34,67" fill="#22c55e" stroke="#22c55e" stroke-width="4.6" stroke-linejoin="round" />
    <polygon points="18,44 25,49 20,56" fill="#ec4899" stroke="#ec4899" stroke-width="4.6" stroke-linejoin="round" />
    <polygon points="26,51 31,55 30,72 18,61" fill="#facc15" stroke="#facc15" stroke-width="4.6" stroke-linejoin="round" />
  </g>
  <use href="#solution-silhouette" fill="none" stroke="#334155" stroke-width="0.6" stroke-linejoin="round" />
</svg>
