<svg xmlns="http://www.w3.org/2000/svg" viewBox="10 33 62 54" preserveAspectRatio="xMidYMid meet">
  <defs>
    <polygon id="solution-silhouette" points="57,36 62,36 69,43 69,49 62,58 56,58 56,62 33,83 13,84 13,68 30,68 32,61" />
    <clipPath id="solution-clip"><use href="#solution-silhouette" /></clipPath>
  </defs>
  <use href="#solution-silhouette" fill="#334155" />
  <g clip-path="url(#solution-clip)">
    <polygon points="59,38 67,45 60,56 42,56" fill="#2f80ed" stroke="#2f80ed" stroke-width="4.6" stroke-linejoin="round" />
    <polygon points="41,57 54,57 54,60 35,78 32,66" fill="#22c55e" stroke="#22c55e" stroke-width="4.6" stroke-linejoin="round" />
    <polygon points="14,72 22,80 14,80" fill="#ec4899" stroke="#ec4899" stroke-width="4.6" stroke-linejoin="round" />
    <polygon points="15,70 32,70 32,80 15,82 14,80 23,78" fill="#facc15" stroke="#facc15" stroke-width="4.6" stroke-linejoin="round" />
  </g>
  <use href="#solution-silhouette" fill="none" stroke="#334155" stroke-width="0.6" stroke-linejoin="round" />
</svg>
